<mxfile host="app.diagrams.net" agent="Mozilla/5.0 (Windows NT 10.0; Win64; x64) AppleWebKit/537.36 (KHTML, like Gecko) Chrome/131.0.0.0 Safari/537.36" version="24.8.6">
  <diagram id="C5RBs43oDa-KdzZeNtuy" name="Page-1">
    <mxGraphModel dx="2589" dy="1618" grid="0" gridSize="10" guides="1" tooltips="1" connect="1" arrows="1" fold="1" page="0" pageScale="1" pageWidth="827" pageHeight="1169" math="0" shadow="0">
      <root>
        <mxCell id="WIyWlLk6GJQsqaUBKTNV-0" />
        <mxCell id="WIyWlLk6GJQsqaUBKTNV-1" parent="WIyWlLk6GJQsqaUBKTNV-0" />
        <mxCell id="ELVA9O6PljgDo9xPoxZ7-0" value="&lt;font style=&quot;font-size: 24px;&quot;&gt;IF_PC&lt;/font&gt;" style="rounded=0;whiteSpace=wrap;html=1;" parent="WIyWlLk6GJQsqaUBKTNV-1" vertex="1">
          <mxGeometry x="30" y="180" width="70" height="40" as="geometry" />
        </mxCell>
        <mxCell id="ELVA9O6PljgDo9xPoxZ7-1" value="&lt;font style=&quot;font-size: 24px;&quot;&gt;IF_IM&lt;/font&gt;" style="rounded=0;whiteSpace=wrap;html=1;" parent="WIyWlLk6GJQsqaUBKTNV-1" vertex="1">
          <mxGeometry x="140" y="180" width="70" height="40" as="geometry" />
        </mxCell>
        <mxCell id="ELVA9O6PljgDo9xPoxZ7-3" value="&lt;font style=&quot;font-size: 18px;&quot;&gt;IF_MUX_PC&lt;/font&gt;" style="shape=trapezoid;perimeter=trapezoidPerimeter;whiteSpace=wrap;html=1;fixedSize=1;" parent="WIyWlLk6GJQsqaUBKTNV-1" vertex="1">
          <mxGeometry x="5" y="270" width="120" height="60" as="geometry" />
        </mxCell>
        <mxCell id="ELVA9O6PljgDo9xPoxZ7-4" value="&lt;font style=&quot;font-size: 24px;&quot;&gt;CONTROLLER&lt;/font&gt;" style="rounded=0;whiteSpace=wrap;html=1;" parent="WIyWlLk6GJQsqaUBKTNV-1" vertex="1">
          <mxGeometry x="110" y="710" width="1640" height="50" as="geometry" />
        </mxCell>
        <mxCell id="ELVA9O6PljgDo9xPoxZ7-19" style="edgeStyle=orthogonalEdgeStyle;rounded=0;orthogonalLoop=1;jettySize=auto;html=1;exitX=1;exitY=0.25;exitDx=0;exitDy=0;entryX=0;entryY=0.5;entryDx=0;entryDy=0;" parent="WIyWlLk6GJQsqaUBKTNV-1" source="ELVA9O6PljgDo9xPoxZ7-7" target="ELVA9O6PljgDo9xPoxZ7-8" edge="1">
          <mxGeometry relative="1" as="geometry" />
        </mxCell>
        <mxCell id="ELVA9O6PljgDo9xPoxZ7-7" value="&lt;font style=&quot;font-size: 24px;&quot;&gt;IF_&lt;/font&gt;&lt;div&gt;&lt;font style=&quot;font-size: 24px;&quot;&gt;ID_&lt;/font&gt;&lt;/div&gt;&lt;div&gt;&lt;font style=&quot;font-size: 24px;&quot;&gt;REG&lt;/font&gt;&lt;/div&gt;" style="rounded=0;whiteSpace=wrap;html=1;" parent="WIyWlLk6GJQsqaUBKTNV-1" vertex="1">
          <mxGeometry x="310" y="70" width="50" height="390" as="geometry" />
        </mxCell>
        <mxCell id="ELVA9O6PljgDo9xPoxZ7-8" value="&lt;font style=&quot;font-size: 24px;&quot;&gt;ID_DECODER&lt;/font&gt;" style="rounded=0;whiteSpace=wrap;html=1;" parent="WIyWlLk6GJQsqaUBKTNV-1" vertex="1">
          <mxGeometry x="440" y="180" width="190" height="50" as="geometry" />
        </mxCell>
        <mxCell id="ELVA9O6PljgDo9xPoxZ7-9" value="&lt;font style=&quot;font-size: 24px;&quot;&gt;ID_RF&lt;/font&gt;" style="rounded=0;whiteSpace=wrap;html=1;" parent="WIyWlLk6GJQsqaUBKTNV-1" vertex="1">
          <mxGeometry x="455" y="300" width="160" height="60" as="geometry" />
        </mxCell>
        <mxCell id="ELVA9O6PljgDo9xPoxZ7-10" value="&lt;font style=&quot;font-size: 18px;&quot;&gt;ID_NPC_CALCULATOR&lt;/font&gt;" style="rounded=0;whiteSpace=wrap;html=1;" parent="WIyWlLk6GJQsqaUBKTNV-1" vertex="1">
          <mxGeometry x="420" y="570" width="240" height="60" as="geometry" />
        </mxCell>
        <mxCell id="ELVA9O6PljgDo9xPoxZ7-11" value="&lt;font style=&quot;font-size: 18px;&quot;&gt;MUX_&lt;/font&gt;&lt;div&gt;&lt;font style=&quot;font-size: 18px;&quot;&gt;A&lt;/font&gt;&lt;/div&gt;" style="shape=trapezoid;perimeter=trapezoidPerimeter;whiteSpace=wrap;html=1;fixedSize=1;direction=south;" parent="WIyWlLk6GJQsqaUBKTNV-1" vertex="1">
          <mxGeometry x="740" y="120" width="60" height="140" as="geometry" />
        </mxCell>
        <mxCell id="ELVA9O6PljgDo9xPoxZ7-12" value="&lt;font style=&quot;font-size: 18px;&quot;&gt;MUX_&lt;/font&gt;&lt;div&gt;&lt;span style=&quot;font-size: 18px;&quot;&gt;B&lt;/span&gt;&lt;/div&gt;" style="shape=trapezoid;perimeter=trapezoidPerimeter;whiteSpace=wrap;html=1;fixedSize=1;direction=south;" parent="WIyWlLk6GJQsqaUBKTNV-1" vertex="1">
          <mxGeometry x="740" y="310" width="60" height="140" as="geometry" />
        </mxCell>
        <mxCell id="ELVA9O6PljgDo9xPoxZ7-13" value="&lt;font style=&quot;font-size: 24px;&quot;&gt;ID_&lt;/font&gt;&lt;div&gt;&lt;font style=&quot;font-size: 24px;&quot;&gt;EXE_&lt;/font&gt;&lt;/div&gt;&lt;div&gt;&lt;font style=&quot;font-size: 24px;&quot;&gt;REG&lt;/font&gt;&lt;/div&gt;" style="rounded=0;whiteSpace=wrap;html=1;" parent="WIyWlLk6GJQsqaUBKTNV-1" vertex="1">
          <mxGeometry x="898" y="70" width="70" height="430" as="geometry" />
        </mxCell>
        <mxCell id="ELVA9O6PljgDo9xPoxZ7-14" value="&lt;font style=&quot;font-size: 24px;&quot;&gt;EXE_&lt;/font&gt;&lt;div&gt;&lt;font style=&quot;font-size: 24px;&quot;&gt;ALU&lt;/font&gt;&lt;/div&gt;" style="rounded=0;whiteSpace=wrap;html=1;" parent="WIyWlLk6GJQsqaUBKTNV-1" vertex="1">
          <mxGeometry x="1070" y="180" width="70" height="150" as="geometry" />
        </mxCell>
        <mxCell id="ELVA9O6PljgDo9xPoxZ7-15" value="&lt;font style=&quot;font-size: 24px;&quot;&gt;EXE_&lt;/font&gt;&lt;div&gt;&lt;font style=&quot;font-size: 24px;&quot;&gt;MEM_&lt;/font&gt;&lt;/div&gt;&lt;div&gt;&lt;font style=&quot;font-size: 24px;&quot;&gt;REG&lt;/font&gt;&lt;/div&gt;" style="rounded=0;whiteSpace=wrap;html=1;" parent="WIyWlLk6GJQsqaUBKTNV-1" vertex="1">
          <mxGeometry x="1187" y="70" width="65" height="390" as="geometry" />
        </mxCell>
        <mxCell id="ELVA9O6PljgDo9xPoxZ7-16" value="&lt;font style=&quot;font-size: 24px;&quot;&gt;MEM_&lt;/font&gt;&lt;div&gt;&lt;font style=&quot;font-size: 24px;&quot;&gt;WB_&lt;/font&gt;&lt;/div&gt;&lt;div&gt;&lt;font style=&quot;font-size: 24px;&quot;&gt;REG&lt;/font&gt;&lt;/div&gt;" style="rounded=0;whiteSpace=wrap;html=1;" parent="WIyWlLk6GJQsqaUBKTNV-1" vertex="1">
          <mxGeometry x="1540" y="60" width="70" height="390" as="geometry" />
        </mxCell>
        <mxCell id="ELVA9O6PljgDo9xPoxZ7-17" value="&lt;font style=&quot;font-size: 24px;&quot;&gt;MEM_&lt;/font&gt;&lt;div&gt;&lt;span style=&quot;font-size: 24px;&quot;&gt;DM&lt;/span&gt;&lt;/div&gt;" style="rounded=0;whiteSpace=wrap;html=1;" parent="WIyWlLk6GJQsqaUBKTNV-1" vertex="1">
          <mxGeometry x="1350" y="229" width="60" height="100" as="geometry" />
        </mxCell>
        <mxCell id="ELVA9O6PljgDo9xPoxZ7-18" value="&lt;font style=&quot;font-size: 18px;&quot;&gt;MUX_&lt;/font&gt;&lt;div&gt;&lt;span style=&quot;font-size: 18px;&quot;&gt;MEM&lt;/span&gt;&lt;/div&gt;" style="shape=trapezoid;perimeter=trapezoidPerimeter;whiteSpace=wrap;html=1;fixedSize=1;direction=south;" parent="WIyWlLk6GJQsqaUBKTNV-1" vertex="1">
          <mxGeometry x="1450" y="55" width="60" height="195" as="geometry" />
        </mxCell>
        <mxCell id="ELVA9O6PljgDo9xPoxZ7-20" value="&lt;span style=&quot;font-size: 18px;&quot;&gt;instr&lt;/span&gt;" style="text;html=1;align=center;verticalAlign=middle;whiteSpace=wrap;rounded=0;" parent="WIyWlLk6GJQsqaUBKTNV-1" vertex="1">
          <mxGeometry x="384" y="150" width="60" height="30" as="geometry" />
        </mxCell>
        <mxCell id="ELVA9O6PljgDo9xPoxZ7-24" value="&lt;font style=&quot;font-size: 18px;&quot;&gt;PC&lt;/font&gt;" style="text;html=1;align=center;verticalAlign=middle;whiteSpace=wrap;rounded=0;" parent="WIyWlLk6GJQsqaUBKTNV-1" vertex="1">
          <mxGeometry x="480" y="118" width="60" height="30" as="geometry" />
        </mxCell>
        <mxCell id="ELVA9O6PljgDo9xPoxZ7-26" value="" style="endArrow=classic;html=1;rounded=0;entryX=0.786;entryY=1;entryDx=0;entryDy=0;entryPerimeter=0;" parent="WIyWlLk6GJQsqaUBKTNV-1" source="ELVA9O6PljgDo9xPoxZ7-55" target="ELVA9O6PljgDo9xPoxZ7-11" edge="1">
          <mxGeometry width="50" height="50" relative="1" as="geometry">
            <mxPoint x="615" y="310" as="sourcePoint" />
            <mxPoint x="665" y="210" as="targetPoint" />
            <Array as="points">
              <mxPoint x="665" y="310" />
              <mxPoint x="665" y="230" />
            </Array>
          </mxGeometry>
        </mxCell>
        <mxCell id="ELVA9O6PljgDo9xPoxZ7-27" value="data_a" style="text;html=1;align=center;verticalAlign=middle;whiteSpace=wrap;rounded=0;" parent="WIyWlLk6GJQsqaUBKTNV-1" vertex="1">
          <mxGeometry x="670" y="200" width="60" height="30" as="geometry" />
        </mxCell>
        <mxCell id="ELVA9O6PljgDo9xPoxZ7-29" value="" style="endArrow=classic;html=1;rounded=0;entryX=1;entryY=1;entryDx=0;entryDy=0;exitDx=0;exitDy=0;" parent="WIyWlLk6GJQsqaUBKTNV-1" source="ELVA9O6PljgDo9xPoxZ7-53" target="ELVA9O6PljgDo9xPoxZ7-30" edge="1">
          <mxGeometry width="50" height="50" relative="1" as="geometry">
            <mxPoint x="620" y="330" as="sourcePoint" />
            <mxPoint x="580" y="350" as="targetPoint" />
          </mxGeometry>
        </mxCell>
        <mxCell id="ELVA9O6PljgDo9xPoxZ7-30" value="data_b" style="text;html=1;align=center;verticalAlign=middle;whiteSpace=wrap;rounded=0;" parent="WIyWlLk6GJQsqaUBKTNV-1" vertex="1">
          <mxGeometry x="680" y="300" width="60" height="30" as="geometry" />
        </mxCell>
        <mxCell id="ELVA9O6PljgDo9xPoxZ7-31" value="" style="endArrow=classic;html=1;rounded=0;exitX=0.117;exitY=1.049;exitDx=0;exitDy=0;exitPerimeter=0;" parent="WIyWlLk6GJQsqaUBKTNV-1" source="ELVA9O6PljgDo9xPoxZ7-8" edge="1">
          <mxGeometry width="50" height="50" relative="1" as="geometry">
            <mxPoint x="510" y="320" as="sourcePoint" />
            <mxPoint x="462" y="297" as="targetPoint" />
          </mxGeometry>
        </mxCell>
        <mxCell id="ELVA9O6PljgDo9xPoxZ7-32" value="addr_a" style="text;html=1;align=center;verticalAlign=middle;whiteSpace=wrap;rounded=0;" parent="WIyWlLk6GJQsqaUBKTNV-1" vertex="1">
          <mxGeometry x="414" y="250" width="60" height="30" as="geometry" />
        </mxCell>
        <mxCell id="ELVA9O6PljgDo9xPoxZ7-33" value="addr_b" style="text;html=1;align=center;verticalAlign=middle;whiteSpace=wrap;rounded=0;" parent="WIyWlLk6GJQsqaUBKTNV-1" vertex="1">
          <mxGeometry x="474" y="250" width="60" height="30" as="geometry" />
        </mxCell>
        <mxCell id="ELVA9O6PljgDo9xPoxZ7-34" value="" style="endArrow=classic;html=1;rounded=0;exitX=0.442;exitY=1.029;exitDx=0;exitDy=0;exitPerimeter=0;entryX=0.431;entryY=0;entryDx=0;entryDy=0;entryPerimeter=0;" parent="WIyWlLk6GJQsqaUBKTNV-1" source="ELVA9O6PljgDo9xPoxZ7-8" target="ELVA9O6PljgDo9xPoxZ7-9" edge="1">
          <mxGeometry width="50" height="50" relative="1" as="geometry">
            <mxPoint x="500" y="320" as="sourcePoint" />
            <mxPoint x="550" y="270" as="targetPoint" />
          </mxGeometry>
        </mxCell>
        <mxCell id="ELVA9O6PljgDo9xPoxZ7-40" value="" style="endArrow=classic;html=1;rounded=0;" parent="WIyWlLk6GJQsqaUBKTNV-1" source="ELVA9O6PljgDo9xPoxZ7-55" edge="1">
          <mxGeometry width="50" height="50" relative="1" as="geometry">
            <mxPoint x="630" y="310" as="sourcePoint" />
            <mxPoint x="640" y="569" as="targetPoint" />
          </mxGeometry>
        </mxCell>
        <mxCell id="ELVA9O6PljgDo9xPoxZ7-41" value="" style="endArrow=classic;html=1;rounded=0;entryX=1;entryY=0;entryDx=0;entryDy=0;exitX=0.508;exitY=0.277;exitDx=0;exitDy=0;exitPerimeter=0;" parent="WIyWlLk6GJQsqaUBKTNV-1" source="ELVA9O6PljgDo9xPoxZ7-53" target="ELVA9O6PljgDo9xPoxZ7-10" edge="1">
          <mxGeometry width="50" height="50" relative="1" as="geometry">
            <mxPoint x="640" y="330" as="sourcePoint" />
            <mxPoint x="560" y="350" as="targetPoint" />
          </mxGeometry>
        </mxCell>
        <mxCell id="ELVA9O6PljgDo9xPoxZ7-43" value="" style="endArrow=classic;html=1;rounded=0;entryX=0.5;entryY=1;entryDx=0;entryDy=0;exitX=0.5;exitY=0;exitDx=0;exitDy=0;" parent="WIyWlLk6GJQsqaUBKTNV-1" source="ELVA9O6PljgDo9xPoxZ7-3" target="ELVA9O6PljgDo9xPoxZ7-0" edge="1">
          <mxGeometry width="50" height="50" relative="1" as="geometry">
            <mxPoint x="280" y="360" as="sourcePoint" />
            <mxPoint x="330" y="310" as="targetPoint" />
          </mxGeometry>
        </mxCell>
        <mxCell id="ELVA9O6PljgDo9xPoxZ7-44" value="" style="endArrow=classic;html=1;rounded=0;exitX=1;exitY=0.5;exitDx=0;exitDy=0;entryX=0;entryY=0.5;entryDx=0;entryDy=0;" parent="WIyWlLk6GJQsqaUBKTNV-1" source="ELVA9O6PljgDo9xPoxZ7-0" target="ELVA9O6PljgDo9xPoxZ7-1" edge="1">
          <mxGeometry width="50" height="50" relative="1" as="geometry">
            <mxPoint x="270" y="280" as="sourcePoint" />
            <mxPoint x="320" y="230" as="targetPoint" />
          </mxGeometry>
        </mxCell>
        <mxCell id="ELVA9O6PljgDo9xPoxZ7-45" value="pc" style="text;html=1;align=center;verticalAlign=middle;whiteSpace=wrap;rounded=0;" parent="WIyWlLk6GJQsqaUBKTNV-1" vertex="1">
          <mxGeometry x="90" y="175" width="60" height="30" as="geometry" />
        </mxCell>
        <mxCell id="ELVA9O6PljgDo9xPoxZ7-46" value="npc_from_mux" style="text;html=1;align=center;verticalAlign=middle;whiteSpace=wrap;rounded=0;" parent="WIyWlLk6GJQsqaUBKTNV-1" vertex="1">
          <mxGeometry x="79" y="230" width="60" height="30" as="geometry" />
        </mxCell>
        <mxCell id="ELVA9O6PljgDo9xPoxZ7-48" value="" style="endArrow=classic;html=1;rounded=0;exitX=0.991;exitY=0.821;exitDx=0;exitDy=0;exitPerimeter=0;" parent="WIyWlLk6GJQsqaUBKTNV-1" source="ELVA9O6PljgDo9xPoxZ7-7" edge="1">
          <mxGeometry width="50" height="50" relative="1" as="geometry">
            <mxPoint x="370" y="480" as="sourcePoint" />
            <mxPoint x="460" y="569" as="targetPoint" />
            <Array as="points">
              <mxPoint x="460" y="390" />
            </Array>
          </mxGeometry>
        </mxCell>
        <mxCell id="ELVA9O6PljgDo9xPoxZ7-49" value="&lt;font style=&quot;font-size: 18px;&quot;&gt;pc&lt;/font&gt;" style="text;html=1;align=center;verticalAlign=middle;whiteSpace=wrap;rounded=0;" parent="WIyWlLk6GJQsqaUBKTNV-1" vertex="1">
          <mxGeometry x="380" y="360" width="60" height="30" as="geometry" />
        </mxCell>
        <mxCell id="ELVA9O6PljgDo9xPoxZ7-50" value="" style="endArrow=classic;html=1;rounded=0;entryX=0.826;entryY=0.035;entryDx=0;entryDy=0;entryPerimeter=0;exitDx=0;exitDy=0;exitPerimeter=0;" parent="WIyWlLk6GJQsqaUBKTNV-1" source="ELVA9O6PljgDo9xPoxZ7-56" edge="1">
          <mxGeometry width="50" height="50" relative="1" as="geometry">
            <mxPoint x="620.26" y="233.85000000000002" as="sourcePoint" />
            <mxPoint x="617.24" y="572.1" as="targetPoint" />
          </mxGeometry>
        </mxCell>
        <mxCell id="ELVA9O6PljgDo9xPoxZ7-51" value="imm" style="text;html=1;align=center;verticalAlign=middle;whiteSpace=wrap;rounded=0;" parent="WIyWlLk6GJQsqaUBKTNV-1" vertex="1">
          <mxGeometry x="575" y="250" width="60" height="30" as="geometry" />
        </mxCell>
        <mxCell id="ELVA9O6PljgDo9xPoxZ7-52" value="" style="endArrow=classic;html=1;rounded=0;entryX=0.75;entryY=1;entryDx=0;entryDy=0;" parent="WIyWlLk6GJQsqaUBKTNV-1" edge="1">
          <mxGeometry width="50" height="50" relative="1" as="geometry">
            <mxPoint x="620" y="410" as="sourcePoint" />
            <mxPoint x="740" y="410" as="targetPoint" />
          </mxGeometry>
        </mxCell>
        <mxCell id="ELVA9O6PljgDo9xPoxZ7-59" value="" style="edgeStyle=elbowEdgeStyle;elbow=vertical;endArrow=classic;html=1;curved=0;rounded=0;endSize=8;startSize=8;entryX=0.5;entryY=1;entryDx=0;entryDy=0;exitX=0.5;exitY=1;exitDx=0;exitDy=0;" parent="WIyWlLk6GJQsqaUBKTNV-1" source="ELVA9O6PljgDo9xPoxZ7-10" target="ELVA9O6PljgDo9xPoxZ7-3" edge="1">
          <mxGeometry width="50" height="50" relative="1" as="geometry">
            <mxPoint x="360" y="370" as="sourcePoint" />
            <mxPoint x="410" y="320" as="targetPoint" />
            <Array as="points">
              <mxPoint x="310" y="670" />
            </Array>
          </mxGeometry>
        </mxCell>
        <mxCell id="ELVA9O6PljgDo9xPoxZ7-60" value="&lt;font style=&quot;font-size: 18px;&quot;&gt;npc_from_calculator&amp;nbsp; &amp;amp;&amp;nbsp; need_branch&lt;/font&gt;" style="text;html=1;align=center;verticalAlign=middle;whiteSpace=wrap;rounded=0;" parent="WIyWlLk6GJQsqaUBKTNV-1" vertex="1">
          <mxGeometry x="37" y="409" width="250" height="30" as="geometry" />
        </mxCell>
        <mxCell id="ELVA9O6PljgDo9xPoxZ7-61" value="" style="endArrow=classic;html=1;rounded=0;exitX=1;exitY=0.5;exitDx=0;exitDy=0;entryX=0.011;entryY=0.332;entryDx=0;entryDy=0;entryPerimeter=0;" parent="WIyWlLk6GJQsqaUBKTNV-1" source="ELVA9O6PljgDo9xPoxZ7-1" target="ELVA9O6PljgDo9xPoxZ7-7" edge="1">
          <mxGeometry width="50" height="50" relative="1" as="geometry">
            <mxPoint x="420" y="350" as="sourcePoint" />
            <mxPoint x="470" y="300" as="targetPoint" />
          </mxGeometry>
        </mxCell>
        <mxCell id="ELVA9O6PljgDo9xPoxZ7-62" value="&lt;font style=&quot;font-size: 18px;&quot;&gt;instr&lt;/font&gt;" style="text;html=1;align=center;verticalAlign=middle;whiteSpace=wrap;rounded=0;" parent="WIyWlLk6GJQsqaUBKTNV-1" vertex="1">
          <mxGeometry x="220" y="170" width="60" height="30" as="geometry" />
        </mxCell>
        <mxCell id="ELVA9O6PljgDo9xPoxZ7-63" value="" style="endArrow=classic;html=1;rounded=0;exitX=1;exitY=1;exitDx=0;exitDy=0;entryX=-0.005;entryY=0.469;entryDx=0;entryDy=0;entryPerimeter=0;" parent="WIyWlLk6GJQsqaUBKTNV-1" source="ELVA9O6PljgDo9xPoxZ7-8" target="ELVA9O6PljgDo9xPoxZ7-13" edge="1">
          <mxGeometry width="50" height="50" relative="1" as="geometry">
            <mxPoint x="630" y="197.5" as="sourcePoint" />
            <mxPoint x="875" y="270" as="targetPoint" />
            <Array as="points">
              <mxPoint x="630" y="272.5" />
            </Array>
          </mxGeometry>
        </mxCell>
        <mxCell id="ELVA9O6PljgDo9xPoxZ7-64" value="exe_signals &amp;amp; mem_signals &amp;amp;&lt;div&gt;wb_signals&lt;/div&gt;" style="text;html=1;align=center;verticalAlign=middle;whiteSpace=wrap;rounded=0;" parent="WIyWlLk6GJQsqaUBKTNV-1" vertex="1">
          <mxGeometry x="730" y="263" width="140" height="30" as="geometry" />
        </mxCell>
        <mxCell id="ELVA9O6PljgDo9xPoxZ7-67" value="" style="endArrow=classic;html=1;rounded=0;exitX=0.5;exitY=0;exitDx=0;exitDy=0;entryX=0.047;entryY=0.28;entryDx=0;entryDy=0;entryPerimeter=0;" parent="WIyWlLk6GJQsqaUBKTNV-1" source="ELVA9O6PljgDo9xPoxZ7-11" target="ELVA9O6PljgDo9xPoxZ7-13" edge="1">
          <mxGeometry width="50" height="50" relative="1" as="geometry">
            <mxPoint x="840" y="320" as="sourcePoint" />
            <mxPoint x="890" y="270" as="targetPoint" />
          </mxGeometry>
        </mxCell>
        <mxCell id="ELVA9O6PljgDo9xPoxZ7-68" value="" style="endArrow=classic;html=1;rounded=0;exitX=0.5;exitY=0;exitDx=0;exitDy=0;entryX=0.031;entryY=0.723;entryDx=0;entryDy=0;entryPerimeter=0;" parent="WIyWlLk6GJQsqaUBKTNV-1" source="ELVA9O6PljgDo9xPoxZ7-12" target="ELVA9O6PljgDo9xPoxZ7-13" edge="1">
          <mxGeometry width="50" height="50" relative="1" as="geometry">
            <mxPoint x="840" y="320" as="sourcePoint" />
            <mxPoint x="890" y="270" as="targetPoint" />
          </mxGeometry>
        </mxCell>
        <mxCell id="ELVA9O6PljgDo9xPoxZ7-69" value="alu_oprand_a" style="text;html=1;align=center;verticalAlign=middle;whiteSpace=wrap;rounded=0;" parent="WIyWlLk6GJQsqaUBKTNV-1" vertex="1">
          <mxGeometry x="810" y="160" width="60" height="30" as="geometry" />
        </mxCell>
        <mxCell id="ELVA9O6PljgDo9xPoxZ7-70" value="alu_oprand_b" style="text;html=1;align=center;verticalAlign=middle;whiteSpace=wrap;rounded=0;" parent="WIyWlLk6GJQsqaUBKTNV-1" vertex="1">
          <mxGeometry x="818" y="355" width="60" height="30" as="geometry" />
        </mxCell>
        <mxCell id="ELVA9O6PljgDo9xPoxZ7-71" value="" style="endArrow=classic;html=1;rounded=0;exitX=0.128;exitY=0;exitDx=0;exitDy=0;exitPerimeter=0;entryX=0.25;entryY=1;entryDx=0;entryDy=0;" parent="WIyWlLk6GJQsqaUBKTNV-1" source="ELVA9O6PljgDo9xPoxZ7-4" target="ELVA9O6PljgDo9xPoxZ7-7" edge="1">
          <mxGeometry width="50" height="50" relative="1" as="geometry">
            <mxPoint x="710" y="430" as="sourcePoint" />
            <mxPoint x="760" y="380" as="targetPoint" />
          </mxGeometry>
        </mxCell>
        <mxCell id="ELVA9O6PljgDo9xPoxZ7-72" value="stall&lt;div&gt;bubble&lt;/div&gt;" style="text;html=1;align=center;verticalAlign=middle;whiteSpace=wrap;rounded=0;" parent="WIyWlLk6GJQsqaUBKTNV-1" vertex="1">
          <mxGeometry x="310" y="555" width="60" height="30" as="geometry" />
        </mxCell>
        <mxCell id="ELVA9O6PljgDo9xPoxZ7-73" value="" style="endArrow=classic;html=1;rounded=0;exitX=0.491;exitY=0.002;exitDx=0;exitDy=0;exitPerimeter=0;entryX=0.25;entryY=1;entryDx=0;entryDy=0;" parent="WIyWlLk6GJQsqaUBKTNV-1" source="ELVA9O6PljgDo9xPoxZ7-4" target="ELVA9O6PljgDo9xPoxZ7-13" edge="1">
          <mxGeometry width="50" height="50" relative="1" as="geometry">
            <mxPoint x="918" y="610" as="sourcePoint" />
            <mxPoint x="921" y="460" as="targetPoint" />
          </mxGeometry>
        </mxCell>
        <mxCell id="ELVA9O6PljgDo9xPoxZ7-74" value="stall&lt;div&gt;bubble&lt;/div&gt;" style="text;html=1;align=center;verticalAlign=middle;whiteSpace=wrap;rounded=0;" parent="WIyWlLk6GJQsqaUBKTNV-1" vertex="1">
          <mxGeometry x="908" y="545" width="60" height="30" as="geometry" />
        </mxCell>
        <mxCell id="ELVA9O6PljgDo9xPoxZ7-75" value="" style="endArrow=classic;html=1;rounded=0;exitX=0.689;exitY=0;exitDx=0;exitDy=0;exitPerimeter=0;entryX=0.75;entryY=1;entryDx=0;entryDy=0;" parent="WIyWlLk6GJQsqaUBKTNV-1" source="ELVA9O6PljgDo9xPoxZ7-4" target="ELVA9O6PljgDo9xPoxZ7-15" edge="1">
          <mxGeometry width="50" height="50" relative="1" as="geometry">
            <mxPoint x="1191" y="610" as="sourcePoint" />
            <mxPoint x="1194" y="460" as="targetPoint" />
          </mxGeometry>
        </mxCell>
        <mxCell id="ELVA9O6PljgDo9xPoxZ7-76" value="stall&lt;div&gt;bubble&lt;/div&gt;" style="text;html=1;align=center;verticalAlign=middle;whiteSpace=wrap;rounded=0;" parent="WIyWlLk6GJQsqaUBKTNV-1" vertex="1">
          <mxGeometry x="1241" y="525" width="60" height="30" as="geometry" />
        </mxCell>
        <mxCell id="ELVA9O6PljgDo9xPoxZ7-77" value="" style="endArrow=classic;html=1;rounded=0;exitX=0.903;exitY=-0.038;exitDx=0;exitDy=0;exitPerimeter=0;entryX=0.25;entryY=1;entryDx=0;entryDy=0;" parent="WIyWlLk6GJQsqaUBKTNV-1" source="ELVA9O6PljgDo9xPoxZ7-4" edge="1">
          <mxGeometry width="50" height="50" relative="1" as="geometry">
            <mxPoint x="1590" y="600" as="sourcePoint" />
            <mxPoint x="1593" y="450" as="targetPoint" />
          </mxGeometry>
        </mxCell>
        <mxCell id="ELVA9O6PljgDo9xPoxZ7-78" value="&lt;div&gt;bubble&lt;/div&gt;" style="text;html=1;align=center;verticalAlign=middle;whiteSpace=wrap;rounded=0;" parent="WIyWlLk6GJQsqaUBKTNV-1" vertex="1">
          <mxGeometry x="1580" y="545" width="60" height="30" as="geometry" />
        </mxCell>
        <mxCell id="ELVA9O6PljgDo9xPoxZ7-79" value="" style="endArrow=classic;html=1;rounded=0;exitX=0.5;exitY=0;exitDx=0;exitDy=0;entryX=0.047;entryY=0.28;entryDx=0;entryDy=0;entryPerimeter=0;" parent="WIyWlLk6GJQsqaUBKTNV-1" edge="1">
          <mxGeometry width="50" height="50" relative="1" as="geometry">
            <mxPoint x="968" y="205" as="sourcePoint" />
            <mxPoint x="1069" y="205" as="targetPoint" />
          </mxGeometry>
        </mxCell>
        <mxCell id="ELVA9O6PljgDo9xPoxZ7-80" value="alu_oprand_a" style="text;html=1;align=center;verticalAlign=middle;whiteSpace=wrap;rounded=0;" parent="WIyWlLk6GJQsqaUBKTNV-1" vertex="1">
          <mxGeometry x="978" y="175" width="60" height="30" as="geometry" />
        </mxCell>
        <mxCell id="ELVA9O6PljgDo9xPoxZ7-81" value="" style="endArrow=classic;html=1;rounded=0;exitX=0.5;exitY=0;exitDx=0;exitDy=0;entryX=0.031;entryY=0.723;entryDx=0;entryDy=0;entryPerimeter=0;" parent="WIyWlLk6GJQsqaUBKTNV-1" edge="1">
          <mxGeometry width="50" height="50" relative="1" as="geometry">
            <mxPoint x="968" y="288" as="sourcePoint" />
            <mxPoint x="1068" y="289" as="targetPoint" />
          </mxGeometry>
        </mxCell>
        <mxCell id="ELVA9O6PljgDo9xPoxZ7-82" value="alu_oprand_b" style="text;html=1;align=center;verticalAlign=middle;whiteSpace=wrap;rounded=0;" parent="WIyWlLk6GJQsqaUBKTNV-1" vertex="1">
          <mxGeometry x="986" y="263" width="60" height="30" as="geometry" />
        </mxCell>
        <mxCell id="ELVA9O6PljgDo9xPoxZ7-83" value="" style="endArrow=classic;html=1;rounded=0;exitX=1;exitY=0.75;exitDx=0;exitDy=0;entryX=0.5;entryY=1;entryDx=0;entryDy=0;" parent="WIyWlLk6GJQsqaUBKTNV-1" source="ELVA9O6PljgDo9xPoxZ7-13" target="ELVA9O6PljgDo9xPoxZ7-14" edge="1">
          <mxGeometry width="50" height="50" relative="1" as="geometry">
            <mxPoint x="730" y="350" as="sourcePoint" />
            <mxPoint x="780" y="300" as="targetPoint" />
            <Array as="points">
              <mxPoint x="1105" y="393" />
            </Array>
          </mxGeometry>
        </mxCell>
        <mxCell id="ELVA9O6PljgDo9xPoxZ7-84" value="alu_op" style="text;html=1;align=center;verticalAlign=middle;whiteSpace=wrap;rounded=0;" parent="WIyWlLk6GJQsqaUBKTNV-1" vertex="1">
          <mxGeometry x="1000" y="365" width="60" height="30" as="geometry" />
        </mxCell>
        <mxCell id="ELVA9O6PljgDo9xPoxZ7-85" value="" style="endArrow=classic;html=1;rounded=0;entryX=-0.033;entryY=0.471;entryDx=0;entryDy=0;entryPerimeter=0;exitX=1;exitY=0.5;exitDx=0;exitDy=0;" parent="WIyWlLk6GJQsqaUBKTNV-1" source="ELVA9O6PljgDo9xPoxZ7-14" target="ELVA9O6PljgDo9xPoxZ7-15" edge="1">
          <mxGeometry width="50" height="50" relative="1" as="geometry">
            <mxPoint x="960" y="370" as="sourcePoint" />
            <mxPoint x="1010" y="320" as="targetPoint" />
          </mxGeometry>
        </mxCell>
        <mxCell id="ELVA9O6PljgDo9xPoxZ7-86" value="alu_&lt;div&gt;result&lt;/div&gt;" style="text;html=1;align=center;verticalAlign=middle;whiteSpace=wrap;rounded=0;" parent="WIyWlLk6GJQsqaUBKTNV-1" vertex="1">
          <mxGeometry x="1130" y="220" width="60" height="30" as="geometry" />
        </mxCell>
        <mxCell id="ELVA9O6PljgDo9xPoxZ7-87" value="" style="endArrow=classic;html=1;rounded=0;entryX=0.107;entryY=0.995;entryDx=0;entryDy=0;entryPerimeter=0;exitX=0.988;exitY=0.05;exitDx=0;exitDy=0;exitPerimeter=0;" parent="WIyWlLk6GJQsqaUBKTNV-1" source="ELVA9O6PljgDo9xPoxZ7-15" edge="1">
          <mxGeometry width="50" height="50" relative="1" as="geometry">
            <mxPoint x="1276.0700000000002" y="88.99000000000001" as="sourcePoint" />
            <mxPoint x="1450.2999999999997" y="88.98000000000002" as="targetPoint" />
          </mxGeometry>
        </mxCell>
        <mxCell id="ELVA9O6PljgDo9xPoxZ7-88" value="alu_&lt;div&gt;result&lt;/div&gt;" style="text;html=1;align=center;verticalAlign=middle;whiteSpace=wrap;rounded=0;" parent="WIyWlLk6GJQsqaUBKTNV-1" vertex="1">
          <mxGeometry x="1299" y="55" width="60" height="30" as="geometry" />
        </mxCell>
        <mxCell id="ELVA9O6PljgDo9xPoxZ7-89" value="" style="endArrow=classic;html=1;rounded=0;entryX=-0.052;entryY=0.164;entryDx=0;entryDy=0;entryPerimeter=0;exitX=1.001;exitY=0.452;exitDx=0;exitDy=0;exitPerimeter=0;" parent="WIyWlLk6GJQsqaUBKTNV-1" source="ELVA9O6PljgDo9xPoxZ7-15" target="ELVA9O6PljgDo9xPoxZ7-17" edge="1">
          <mxGeometry width="50" height="50" relative="1" as="geometry">
            <mxPoint x="1210" y="350" as="sourcePoint" />
            <mxPoint x="1260" y="300" as="targetPoint" />
          </mxGeometry>
        </mxCell>
        <mxCell id="ELVA9O6PljgDo9xPoxZ7-90" value="mem_&lt;div&gt;data_m2s&lt;/div&gt;" style="text;html=1;align=center;verticalAlign=middle;whiteSpace=wrap;rounded=0;" parent="WIyWlLk6GJQsqaUBKTNV-1" vertex="1">
          <mxGeometry x="1276" y="200" width="60" height="60" as="geometry" />
        </mxCell>
        <mxCell id="ELVA9O6PljgDo9xPoxZ7-91" value="" style="endArrow=classic;html=1;rounded=0;entryX=-0.017;entryY=0.57;entryDx=0;entryDy=0;entryPerimeter=0;exitX=1.016;exitY=0.549;exitDx=0;exitDy=0;exitPerimeter=0;" parent="WIyWlLk6GJQsqaUBKTNV-1" target="ELVA9O6PljgDo9xPoxZ7-17" edge="1" source="ELVA9O6PljgDo9xPoxZ7-15">
          <mxGeometry width="50" height="50" relative="1" as="geometry">
            <mxPoint x="1276" y="286" as="sourcePoint" />
            <mxPoint x="1320" y="286" as="targetPoint" />
          </mxGeometry>
        </mxCell>
        <mxCell id="ELVA9O6PljgDo9xPoxZ7-92" value="mem_addr" style="text;html=1;align=center;verticalAlign=middle;whiteSpace=wrap;rounded=0;" parent="WIyWlLk6GJQsqaUBKTNV-1" vertex="1">
          <mxGeometry x="1284" y="280" width="60" height="30" as="geometry" />
        </mxCell>
        <mxCell id="ELVA9O6PljgDo9xPoxZ7-93" value="" style="endArrow=classic;html=1;rounded=0;exitX=1.006;exitY=0.791;exitDx=0;exitDy=0;exitPerimeter=0;" parent="WIyWlLk6GJQsqaUBKTNV-1" edge="1" source="ELVA9O6PljgDo9xPoxZ7-15">
          <mxGeometry width="50" height="50" relative="1" as="geometry">
            <mxPoint x="1280" y="380" as="sourcePoint" />
            <mxPoint x="1380" y="330" as="targetPoint" />
            <Array as="points">
              <mxPoint x="1380" y="380" />
            </Array>
          </mxGeometry>
        </mxCell>
        <mxCell id="ELVA9O6PljgDo9xPoxZ7-94" value="mem_wen&lt;div&gt;mem_ren&lt;/div&gt;" style="text;html=1;align=center;verticalAlign=middle;whiteSpace=wrap;rounded=0;" parent="WIyWlLk6GJQsqaUBKTNV-1" vertex="1">
          <mxGeometry x="1301" y="380" width="60" height="30" as="geometry" />
        </mxCell>
        <mxCell id="ELVA9O6PljgDo9xPoxZ7-95" value="" style="endArrow=classic;html=1;rounded=0;exitX=1;exitY=0.894;exitDx=0;exitDy=0;exitPerimeter=0;" parent="WIyWlLk6GJQsqaUBKTNV-1" target="ELVA9O6PljgDo9xPoxZ7-18" edge="1" source="ELVA9O6PljgDo9xPoxZ7-15">
          <mxGeometry width="50" height="50" relative="1" as="geometry">
            <mxPoint x="1280" y="420" as="sourcePoint" />
            <mxPoint x="1280" y="290" as="targetPoint" />
            <Array as="points">
              <mxPoint x="1480" y="420" />
            </Array>
          </mxGeometry>
        </mxCell>
        <mxCell id="ELVA9O6PljgDo9xPoxZ7-96" value="mem_choice" style="text;html=1;align=center;verticalAlign=middle;whiteSpace=wrap;rounded=0;" parent="WIyWlLk6GJQsqaUBKTNV-1" vertex="1">
          <mxGeometry x="1410" y="395" width="60" height="30" as="geometry" />
        </mxCell>
        <mxCell id="ELVA9O6PljgDo9xPoxZ7-97" value="" style="endArrow=classic;html=1;rounded=0;entryX=0;entryY=0.5;entryDx=0;entryDy=0;exitX=0.895;exitY=-0.042;exitDx=0;exitDy=0;exitPerimeter=0;" parent="WIyWlLk6GJQsqaUBKTNV-1" source="ELVA9O6PljgDo9xPoxZ7-8" target="ELVA9O6PljgDo9xPoxZ7-11" edge="1">
          <mxGeometry width="50" height="50" relative="1" as="geometry">
            <mxPoint x="580" y="220" as="sourcePoint" />
            <mxPoint x="630" y="170" as="targetPoint" />
            <Array as="points">
              <mxPoint x="610" y="100" />
              <mxPoint x="770" y="100" />
            </Array>
          </mxGeometry>
        </mxCell>
        <mxCell id="ELVA9O6PljgDo9xPoxZ7-99" value="" style="endArrow=classic;html=1;rounded=0;entryX=0.167;entryY=1.045;entryDx=0;entryDy=0;exitX=1.033;exitY=0.188;exitDx=0;exitDy=0;exitPerimeter=0;entryPerimeter=0;" parent="WIyWlLk6GJQsqaUBKTNV-1" source="ELVA9O6PljgDo9xPoxZ7-7" target="ELVA9O6PljgDo9xPoxZ7-11" edge="1">
          <mxGeometry width="50" height="50" relative="1" as="geometry">
            <mxPoint x="580" y="220" as="sourcePoint" />
            <mxPoint x="630" y="170" as="targetPoint" />
          </mxGeometry>
        </mxCell>
        <mxCell id="ELVA9O6PljgDo9xPoxZ7-101" value="mux_a_choice" style="text;html=1;align=center;verticalAlign=middle;whiteSpace=wrap;rounded=0;" parent="WIyWlLk6GJQsqaUBKTNV-1" vertex="1">
          <mxGeometry x="650" y="70" width="60" height="30" as="geometry" />
        </mxCell>
        <mxCell id="ELVA9O6PljgDo9xPoxZ7-102" value="" style="endArrow=classic;html=1;rounded=0;entryDx=0;entryDy=0;exitX=1;exitY=0.5;exitDx=0;exitDy=0;" parent="WIyWlLk6GJQsqaUBKTNV-1" source="ELVA9O6PljgDo9xPoxZ7-9" target="ELVA9O6PljgDo9xPoxZ7-53" edge="1">
          <mxGeometry width="50" height="50" relative="1" as="geometry">
            <mxPoint x="615" y="330" as="sourcePoint" />
            <mxPoint x="740" y="330" as="targetPoint" />
          </mxGeometry>
        </mxCell>
        <mxCell id="ELVA9O6PljgDo9xPoxZ7-53" value="" style="shape=waypoint;sketch=0;fillStyle=solid;size=6;pointerEvents=1;points=[];fillColor=none;resizable=0;rotatable=0;perimeter=centerPerimeter;snapToPoint=1;" parent="WIyWlLk6GJQsqaUBKTNV-1" vertex="1">
          <mxGeometry x="650" y="320" width="20" height="20" as="geometry" />
        </mxCell>
        <mxCell id="ELVA9O6PljgDo9xPoxZ7-103" value="" style="endArrow=classic;html=1;rounded=0;entryDx=0;entryDy=0;entryPerimeter=0;" parent="WIyWlLk6GJQsqaUBKTNV-1" target="ELVA9O6PljgDo9xPoxZ7-55" edge="1">
          <mxGeometry width="50" height="50" relative="1" as="geometry">
            <mxPoint x="615" y="310" as="sourcePoint" />
            <mxPoint x="740" y="230" as="targetPoint" />
            <Array as="points" />
          </mxGeometry>
        </mxCell>
        <mxCell id="ELVA9O6PljgDo9xPoxZ7-55" value="" style="shape=waypoint;sketch=0;fillStyle=solid;size=6;pointerEvents=1;points=[];fillColor=none;resizable=0;rotatable=0;perimeter=centerPerimeter;snapToPoint=1;" parent="WIyWlLk6GJQsqaUBKTNV-1" vertex="1">
          <mxGeometry x="630" y="300" width="20" height="20" as="geometry" />
        </mxCell>
        <mxCell id="ELVA9O6PljgDo9xPoxZ7-104" value="" style="endArrow=classic;html=1;rounded=0;entryDx=0;entryDy=0;entryPerimeter=0;exitX=0.954;exitY=1.077;exitDx=0;exitDy=0;exitPerimeter=0;" parent="WIyWlLk6GJQsqaUBKTNV-1" target="ELVA9O6PljgDo9xPoxZ7-56" edge="1">
          <mxGeometry width="50" height="50" relative="1" as="geometry">
            <mxPoint x="620.26" y="233.85000000000002" as="sourcePoint" />
            <mxPoint x="617.24" y="572.1" as="targetPoint" />
          </mxGeometry>
        </mxCell>
        <mxCell id="ELVA9O6PljgDo9xPoxZ7-56" value="" style="shape=waypoint;sketch=0;fillStyle=solid;size=6;pointerEvents=1;points=[];fillColor=none;resizable=0;rotatable=0;perimeter=centerPerimeter;snapToPoint=1;" parent="WIyWlLk6GJQsqaUBKTNV-1" vertex="1">
          <mxGeometry x="610" y="405" width="20" height="20" as="geometry" />
        </mxCell>
        <mxCell id="ELVA9O6PljgDo9xPoxZ7-105" value="" style="endArrow=classic;html=1;rounded=0;entryX=1;entryY=0.5;entryDx=0;entryDy=0;exitX=0.657;exitY=1.053;exitDx=0;exitDy=0;exitPerimeter=0;" parent="WIyWlLk6GJQsqaUBKTNV-1" source="ELVA9O6PljgDo9xPoxZ7-9" target="ELVA9O6PljgDo9xPoxZ7-12" edge="1">
          <mxGeometry width="50" height="50" relative="1" as="geometry">
            <mxPoint x="570" y="370" as="sourcePoint" />
            <mxPoint x="640" y="380" as="targetPoint" />
            <Array as="points">
              <mxPoint x="560" y="480" />
              <mxPoint x="770" y="480" />
            </Array>
          </mxGeometry>
        </mxCell>
        <mxCell id="ELVA9O6PljgDo9xPoxZ7-106" value="mux_b_choice" style="text;html=1;align=center;verticalAlign=middle;whiteSpace=wrap;rounded=0;" parent="WIyWlLk6GJQsqaUBKTNV-1" vertex="1">
          <mxGeometry x="680" y="480" width="60" height="30" as="geometry" />
        </mxCell>
        <mxCell id="ELVA9O6PljgDo9xPoxZ7-107" value="mem_signals &amp;amp;&lt;div&gt;wb_signals&lt;/div&gt;" style="text;html=1;align=center;verticalAlign=middle;whiteSpace=wrap;rounded=0;" parent="WIyWlLk6GJQsqaUBKTNV-1" vertex="1">
          <mxGeometry x="1030" y="439" width="140" height="30" as="geometry" />
        </mxCell>
        <mxCell id="ELVA9O6PljgDo9xPoxZ7-108" value="" style="endArrow=classic;html=1;rounded=0;entryX=0.037;entryY=0.933;entryDx=0;entryDy=0;entryPerimeter=0;exitX=0.961;exitY=0.838;exitDx=0;exitDy=0;exitPerimeter=0;" parent="WIyWlLk6GJQsqaUBKTNV-1" source="ELVA9O6PljgDo9xPoxZ7-13" target="ELVA9O6PljgDo9xPoxZ7-15" edge="1">
          <mxGeometry width="50" height="50" relative="1" as="geometry">
            <mxPoint x="770" y="390" as="sourcePoint" />
            <mxPoint x="820" y="340" as="targetPoint" />
          </mxGeometry>
        </mxCell>
        <mxCell id="ELVA9O6PljgDo9xPoxZ7-109" value="&lt;div&gt;wb_signals&lt;/div&gt;" style="text;html=1;align=center;verticalAlign=middle;whiteSpace=wrap;rounded=0;" parent="WIyWlLk6GJQsqaUBKTNV-1" vertex="1">
          <mxGeometry x="1390" y="439" width="140" height="30" as="geometry" />
        </mxCell>
        <mxCell id="ELVA9O6PljgDo9xPoxZ7-110" value="" style="endArrow=classic;html=1;rounded=0;entryX=0;entryY=0.986;entryDx=0;entryDy=0;exitX=1;exitY=0.956;exitDx=0;exitDy=0;exitPerimeter=0;entryPerimeter=0;" parent="WIyWlLk6GJQsqaUBKTNV-1" source="ELVA9O6PljgDo9xPoxZ7-15" target="ELVA9O6PljgDo9xPoxZ7-16" edge="1">
          <mxGeometry width="50" height="50" relative="1" as="geometry">
            <mxPoint x="1150" y="420" as="sourcePoint" />
            <mxPoint x="1200" y="370" as="targetPoint" />
          </mxGeometry>
        </mxCell>
        <mxCell id="ELVA9O6PljgDo9xPoxZ7-111" value="" style="endArrow=classic;html=1;rounded=0;exitX=1;exitY=0.25;exitDx=0;exitDy=0;entryX=0.75;entryY=0;entryDx=0;entryDy=0;" parent="WIyWlLk6GJQsqaUBKTNV-1" source="ELVA9O6PljgDo9xPoxZ7-16" target="ELVA9O6PljgDo9xPoxZ7-9" edge="1">
          <mxGeometry width="50" height="50" relative="1" as="geometry">
            <mxPoint x="750" y="310" as="sourcePoint" />
            <mxPoint x="1730" y="60" as="targetPoint" />
            <Array as="points">
              <mxPoint x="1650" y="158" />
              <mxPoint x="1650" y="30" />
              <mxPoint x="575" y="30" />
            </Array>
          </mxGeometry>
        </mxCell>
        <mxCell id="ELVA9O6PljgDo9xPoxZ7-112" value="&lt;font style=&quot;font-size: 18px;&quot;&gt;rf_wen &amp;amp;&lt;/font&gt;&lt;div&gt;&lt;font size=&quot;3&quot;&gt;rf_dataw&lt;/font&gt;&lt;/div&gt;" style="text;html=1;align=center;verticalAlign=middle;whiteSpace=wrap;rounded=0;" parent="WIyWlLk6GJQsqaUBKTNV-1" vertex="1">
          <mxGeometry x="1410" y="-6" width="130" height="30" as="geometry" />
        </mxCell>
        <mxCell id="twANPACmAlN6bWdzANd2-0" value="MEM_EXCP_&lt;div&gt;PROCESSOR&lt;/div&gt;" style="rounded=0;whiteSpace=wrap;html=1;" vertex="1" parent="WIyWlLk6GJQsqaUBKTNV-1">
          <mxGeometry x="1332" y="112" width="104" height="58" as="geometry" />
        </mxCell>
        <mxCell id="twANPACmAlN6bWdzANd2-4" value="&lt;span style=&quot;font-size: 24px;&quot;&gt;TIME_COMPARASION&lt;/span&gt;" style="rounded=0;whiteSpace=wrap;html=1;" vertex="1" parent="WIyWlLk6GJQsqaUBKTNV-1">
          <mxGeometry x="113" y="811" width="1640" height="50" as="geometry" />
        </mxCell>
        <mxCell id="twANPACmAlN6bWdzANd2-5" value="" style="endArrow=classic;html=1;rounded=0;entryX=0;entryY=1;entryDx=0;entryDy=0;exitX=0.675;exitY=-0.021;exitDx=0;exitDy=0;exitPerimeter=0;" edge="1" parent="WIyWlLk6GJQsqaUBKTNV-1" source="twANPACmAlN6bWdzANd2-4">
          <mxGeometry width="50" height="50" relative="1" as="geometry">
            <mxPoint x="1219.56" y="770.7" as="sourcePoint" />
            <mxPoint x="1219" y="460" as="targetPoint" />
          </mxGeometry>
        </mxCell>
        <mxCell id="twANPACmAlN6bWdzANd2-6" value="time_&lt;div&gt;exceeded&lt;/div&gt;" style="text;html=1;align=center;verticalAlign=middle;whiteSpace=wrap;rounded=0;" vertex="1" parent="WIyWlLk6GJQsqaUBKTNV-1">
          <mxGeometry x="1166" y="527" width="60" height="30" as="geometry" />
        </mxCell>
        <mxCell id="twANPACmAlN6bWdzANd2-7" value="" style="endArrow=classic;html=1;rounded=0;exitX=0.808;exitY=-0.021;exitDx=0;exitDy=0;exitPerimeter=0;entryX=1;entryY=1;entryDx=0;entryDy=0;" edge="1" parent="WIyWlLk6GJQsqaUBKTNV-1" source="twANPACmAlN6bWdzANd2-4" target="twANPACmAlN6bWdzANd2-0">
          <mxGeometry width="50" height="50" relative="1" as="geometry">
            <mxPoint x="1527" y="531" as="sourcePoint" />
            <mxPoint x="1577" y="481" as="targetPoint" />
          </mxGeometry>
        </mxCell>
        <mxCell id="twANPACmAlN6bWdzANd2-8" value="time_&lt;div&gt;exceeded&lt;/div&gt;" style="text;html=1;align=center;verticalAlign=middle;whiteSpace=wrap;rounded=0;" vertex="1" parent="WIyWlLk6GJQsqaUBKTNV-1">
          <mxGeometry x="1436" y="557" width="60" height="30" as="geometry" />
        </mxCell>
        <mxCell id="twANPACmAlN6bWdzANd2-9" value="" style="endArrow=classic;html=1;rounded=0;exitX=0.984;exitY=0.141;exitDx=0;exitDy=0;exitPerimeter=0;entryX=0;entryY=0.25;entryDx=0;entryDy=0;" edge="1" parent="WIyWlLk6GJQsqaUBKTNV-1" source="ELVA9O6PljgDo9xPoxZ7-15" target="twANPACmAlN6bWdzANd2-0">
          <mxGeometry width="50" height="50" relative="1" as="geometry">
            <mxPoint x="1482" y="312" as="sourcePoint" />
            <mxPoint x="1532" y="262" as="targetPoint" />
          </mxGeometry>
        </mxCell>
        <mxCell id="twANPACmAlN6bWdzANd2-10" value="BEFORE_&lt;div&gt;MEM_excp&lt;/div&gt;" style="text;html=1;align=center;verticalAlign=middle;whiteSpace=wrap;rounded=0;" vertex="1" parent="WIyWlLk6GJQsqaUBKTNV-1">
          <mxGeometry x="1264" y="126" width="60" height="30" as="geometry" />
        </mxCell>
        <mxCell id="twANPACmAlN6bWdzANd2-12" value="" style="endArrow=classic;html=1;rounded=0;entryX=0.802;entryY=0.035;entryDx=0;entryDy=0;entryPerimeter=0;exitX=0.862;exitY=0.981;exitDx=0;exitDy=0;exitPerimeter=0;" edge="1" parent="WIyWlLk6GJQsqaUBKTNV-1" source="twANPACmAlN6bWdzANd2-0" target="ELVA9O6PljgDo9xPoxZ7-4">
          <mxGeometry width="50" height="50" relative="1" as="geometry">
            <mxPoint x="1527" y="459" as="sourcePoint" />
            <mxPoint x="1786" y="499" as="targetPoint" />
          </mxGeometry>
        </mxCell>
        <mxCell id="twANPACmAlN6bWdzANd2-13" value="catch" style="text;html=1;align=center;verticalAlign=middle;whiteSpace=wrap;rounded=0;" vertex="1" parent="WIyWlLk6GJQsqaUBKTNV-1">
          <mxGeometry x="1376" y="575" width="60" height="30" as="geometry" />
        </mxCell>
      </root>
    </mxGraphModel>
  </diagram>
</mxfile>
